<svg xmlns="http://www.w3.org/2000/svg" xmlns:xlink="http://www.w3.org/1999/xlink" preserveAspectRatio="xMidYMid meet" version="1.0" viewBox="0.0 0.0 500.0 341.0" zoomAndPan="magnify" style="fill: rgb(0, 0, 0);" original_string_length="1028"><g id="__id106_sx1noizjto" style="fill: rgb(255, 172, 18);"><path d="M385.2,295.9V128.6l-5.3-1.8v167.8c-3.6-0.9-7.2-1.7-10.9-2.5V123l-5.3-1.8V291c-3.6-0.8-7.2-1.5-10.9-2.2 V117.4l-5.3-1.8v172.3c-4.6-0.8-9.2-1.6-13.8-2.3V78.5l-39.2,27.7v174.9c-5.6-0.4-11.3-0.8-17-1.1V60.6l-5.3-1.8v221 c-3.6-0.1-7.2-0.2-10.9-0.3V55.1l-5.3-1.8v226.2c-2.1,0-4.2,0-6.3,0c-9,0-17.9,0.2-26.8,0.6V0l-47.7,36.2V125l20.4,9l-1,148 c-3.1,0.3-6.3,0.6-9.4,1V165.7l-5.3-2.1v120c-3.6,0.5-7.3,0.9-10.9,1.5V159.3l-5.3-2.1v128.7c-3.6,0.6-7.3,1.2-10.9,1.8V152.8 l-5.3-2.1v137.9c-4.2,0.8-8.4,1.6-12.5,2.5v-180l-41.4,29.2v161.3C60.2,311.7,28.5,325,0,341c73.7-24.1,159-37.9,250-37.9 s176.3,13.8,250,37.9C465.8,321.8,427.1,306.4,385.2,295.9z" style="fill: inherit;"/><path d="M245.4 49.5L240.2 47.7 240.2 279.4 245.4 279.4z" style="fill: inherit;"/></g></svg>